<?xml version="1.0" encoding="UTF-8" standalone="no"?>
<!-- Created with Inkscape (http://www.inkscape.org/) -->

<svg
   xmlns:dc="http://purl.org/dc/elements/1.1/"
   xmlns:cc="http://creativecommons.org/ns#"
   xmlns:rdf="http://www.w3.org/1999/02/22-rdf-syntax-ns#"
   xmlns:svg="http://www.w3.org/2000/svg"
   xmlns="http://www.w3.org/2000/svg"
   xmlns:sodipodi="http://sodipodi.sourceforge.net/DTD/sodipodi-0.dtd"
   xmlns:inkscape="http://www.inkscape.org/namespaces/inkscape"
   width="250"
   height="250"
   viewBox="0 0 66.145832 66.145835"
   version="1.1"
   id="svg8"
   inkscape:version="0.92.3 (2405546, 2018-03-11)"
   sodipodi:docname="drawing.svg">
  <defs
     id="defs2" />
  <sodipodi:namedview
     id="base"
     pagecolor="#ffffff"
     bordercolor="#666666"
     borderopacity="1.0"
     inkscape:pageopacity="0.0"
     inkscape:pageshadow="2"
     inkscape:zoom="2.8"
     inkscape:cx="180.4591"
     inkscape:cy="102.85714"
     inkscape:document-units="mm"
     inkscape:current-layer="layer1"
     showgrid="true"
     units="px"
     inkscape:window-width="1920"
     inkscape:window-height="1046"
     inkscape:window-x="-11"
     inkscape:window-y="-11"
     inkscape:window-maximized="1">
    <inkscape:grid
       type="xygrid"
       id="grid3715"
       empspacing="1" />
  </sodipodi:namedview>
  <metadata
     id="metadata5">
    <rdf:RDF>
      <cc:Work
         rdf:about="">
        <dc:format>image/svg+xml</dc:format>
        <dc:type
           rdf:resource="http://purl.org/dc/dcmitype/StillImage" />
        <dc:title />
      </cc:Work>
    </rdf:RDF>
  </metadata>
  <g
     inkscape:label="Layer 1"
     inkscape:groupmode="layer"
     id="layer1"
     transform="translate(0,-230.85415)">
    <circle
       id="path3717"
       cx="33.072918"
       cy="263.92706"
       r="33.072918"
       style="stroke-width:0.26458332" />
    <ellipse
       style="fill:#ffffff;stroke-width:0.26458332"
       id="path3721"
       ry="19.843746"
       rx="22.489584"
       cy="277.15622"
       cx="33.072918" />
    <path
       style="fill:#ffffff;stroke-width:0.26458332"
       id="path3760"
       sodipodi:type="arc"
       sodipodi:cx="17.859375"
       sodipodi:cy="246.72916"
       sodipodi:rx="8.598958"
       sodipodi:ry="5.2916665"
       sodipodi:start="0"
       sodipodi:end="6.2400889"
       d="m 26.458333,246.72916 a 8.598958,5.2916665 0 0 1 -8.506314,5.29136 8.598958,5.2916665 0 0 1 -8.6896057,-5.17735 8.598958,5.2916665 0 0 1 8.3190717,-5.40292 8.598958,5.2916665 0 0 1 8.868864,5.06093"
       sodipodi:open="true" />
    <path
       style="fill:#ffffff;stroke-width:0.26458332"
       id="path3760-6"
       sodipodi:type="arc"
       sodipodi:cx="45.648609"
       sodipodi:cy="246.95714"
       sodipodi:rx="8.598958"
       sodipodi:ry="5.2916665"
       sodipodi:start="0"
       sodipodi:end="6.2400889"
       d="m 54.247567,246.95714 a 8.598958,5.2916665 0 0 1 -8.506314,5.29136 8.598958,5.2916665 0 0 1 -8.689606,-5.17734 8.598958,5.2916665 0 0 1 8.319072,-5.40292 8.598958,5.2916665 0 0 1 8.868864,5.06092"
       sodipodi:open="true" />
    <path
       style="fill:#000000;stroke-width:0.26458332"
       id="path3779"
       sodipodi:type="arc"
       sodipodi:cx="21.831196"
       sodipodi:cy="246.87163"
       sodipodi:rx="3.3072915"
       sodipodi:ry="3.3072915"
       sodipodi:start="0"
       sodipodi:end="6.2400931"
       sodipodi:open="true"
       d="m 25.138487,246.87163 a 3.3072915,3.3072915 0 0 1 -3.271662,3.3071 3.3072915,3.3072915 0 0 1 -3.342153,-3.23585 3.3072915,3.3072915 0 0 1 3.199654,-3.37682 3.3072915,3.3072915 0 0 1 3.411091,3.16309" />
    <path
       style="fill:#000000;stroke-width:0.26458332"
       id="path3779-7"
       sodipodi:type="arc"
       sodipodi:cx="49.612446"
       sodipodi:cy="246.87163"
       sodipodi:rx="3.3072917"
       sodipodi:ry="3.3072917"
       sodipodi:start="0"
       sodipodi:end="6.2400931"
       sodipodi:open="true"
       d="m 52.919738,246.87163 a 3.3072917,3.3072917 0 0 1 -3.271663,3.3071 3.3072917,3.3072917 0 0 1 -3.342153,-3.23585 3.3072917,3.3072917 0 0 1 3.199654,-3.37682 3.3072917,3.3072917 0 0 1 3.411091,3.16309" />
    <path
       style="fill:#ffff00;stroke:#000000;stroke-width:0.31653208px;stroke-linecap:butt;stroke-linejoin:miter;stroke-opacity:1"
       d="m 26.741985,257.3428 v 10.52325 l 4.998562,-6.01329 z"
       id="path45"
       inkscape:connector-curvature="0" />
    <path
       style="fill:#ffff00;stroke:#000000;stroke-width:0.40415755px;stroke-linecap:butt;stroke-linejoin:miter;stroke-opacity:1"
       d="m 26.458334,257.31248 h 13.229164 l -6.614581,9.26042 z"
       id="path3725"
       inkscape:connector-curvature="0" />
  </g>
</svg>
